<!-- google-icon.svg -->
<svg xmlns="http://www.w3.org/2000/svg" viewBox="0 0 48 48" width="20" height="20">
  <path fill="#EA4335" d="M24 9.5c3.22 0 5.86 1.1 7.73 2.9l5.78-5.78C33.5 2.9 28.96 0 24 0 14.84 0 7.08 5.74 3.87 13.89l6.87 5.34C12.7 13.31 17.9 9.5 24 9.5z"/>
  <path fill="#4285F4" d="M46.5 24.5c0-1.46-.13-2.88-.36-4.26H24v8.06h12.73c-.55 2.94-2.28 5.43-4.78 7.08l7.36 5.72c4.3-3.97 6.79-9.81 6.79-16.6z"/>
  <path fill="#FBBC05" d="M10.74 28.2c-.51-1.52-.8-3.14-.8-4.8s.29-3.28.8-4.8l-6.87-5.34C2.57 17.35 1.5 20.58 1.5 24s1.07 6.65 2.87 9.44l6.87-5.24z"/>
  <path fill="#34A853" d="M24 46.5c5.96 0 10.96-1.97 14.61-5.35l-7.36-5.72c-2.03 1.36-4.64 2.15-7.25 2.15-6.1 0-11.3-3.81-13.26-9.07l-6.87 5.24C7.08 42.26 14.84 48 24 48z"/>
  <path fill="none" d="M0 0h48v48H0z"/>
</svg>
